<svg width="91" height="18" viewBox="0 0 91 18" fill="none" xmlns="http://www.w3.org/2000/svg">
<path d="M4.36 17.28C3.86667 17.28 3.43333 17.24 3.06 17.16C2.68667 17.08 2.36 16.8867 2.08 16.58C1.81333 16.2733 1.68 15.8 1.68 15.16C1.68 14.2667 1.94667 13.0667 2.48 11.56C3.02667 10.0533 3.74 8.54 4.62 7.02C3.95333 7.06 3.42667 7.16 3.04 7.32C2.65333 7.48 2.4 7.72667 2.28 8.06C2.33333 8.06 2.38667 8.12667 2.44 8.26C2.50667 8.39333 2.54 8.53333 2.54 8.68C2.54 8.92 2.43333 9.11333 2.22 9.26C2.00667 9.39333 1.74 9.46 1.42 9.46C1.04667 9.46 0.746667 9.36 0.52 9.16C0.293333 8.96 0.18 8.67333 0.18 8.3C0.18 7.84667 0.353333 7.43333 0.7 7.06C1.06 6.68667 1.55333 6.39333 2.18 6.18C2.80667 5.95333 3.5 5.84 4.26 5.84C4.54 5.84 4.88667 5.86 5.3 5.9C6.39333 4.16667 7.54667 2.75333 8.76 1.66C9.98667 0.553332 11.1533 -1.19209e-06 12.26 -1.19209e-06C12.9 -1.19209e-06 13.4267 0.0933321 13.84 0.279999L10.7 15H7.82L9.36 7.74C8.86667 7.51333 8.41333 7.34667 8 7.24C7.58667 7.13333 7.14667 7.06 6.68 7.02C5.92 8.66 5.29333 10.34 4.8 12.06C4.32 13.7667 4.08 15.1333 4.08 16.16C4.08 16.6667 4.17333 17.04 4.36 17.28ZM10.7 1.42C10.1267 1.72667 9.52667 2.3 8.9 3.14C8.28667 3.96667 7.68667 4.97333 7.1 6.16C8.06 6.34667 8.87333 6.58 9.54 6.86L10.7 1.42ZM26.7794 15.12C26.0727 15.12 25.5594 14.9067 25.2394 14.48C24.9194 14.0533 24.7594 13.5133 24.7594 12.86C24.7594 12.58 24.7927 12.2667 24.8594 11.92C24.926 11.56 24.9927 11.2133 25.0594 10.88C25.1394 10.5467 25.1927 10.3333 25.2194 10.24C25.326 9.77333 25.426 9.31333 25.5194 8.86C25.6127 8.40667 25.6594 8.04 25.6594 7.76C25.6594 7.08 25.4194 6.74 24.9394 6.74C24.5927 6.74 24.286 6.91333 24.0194 7.26C23.7527 7.59333 23.5394 8.03333 23.3794 8.58L22.0194 15H19.1394L20.5994 8.1C20.6394 7.94 20.6594 7.77333 20.6594 7.6C20.6594 7.01333 20.4594 6.72 20.0594 6.72C19.686 6.72 19.3594 6.89333 19.0794 7.24C18.8127 7.57333 18.5994 8.02 18.4394 8.58L17.0794 15H14.1994L16.3194 5H19.1994L18.9794 6.04C19.6594 5.28 20.4727 4.9 21.4194 4.9C22.5927 4.9 23.2794 5.47333 23.4794 6.62C24.2127 5.48667 25.1394 4.92 26.2594 4.92C26.9394 4.92 27.4794 5.10667 27.8794 5.48C28.2794 5.85333 28.4794 6.42 28.4794 7.18C28.4794 7.56667 28.4327 8 28.3394 8.48C28.246 8.94667 28.1127 9.52 27.9394 10.2C27.8327 10.6133 27.7327 11.02 27.6394 11.42C27.5594 11.8067 27.5194 12.1133 27.5194 12.34C27.5194 12.6067 27.5794 12.8133 27.6994 12.96C27.8194 13.1067 28.026 13.18 28.3194 13.18C28.6394 13.18 28.8594 13.14 28.9794 13.06C28.8994 13.74 28.6527 14.2533 28.2394 14.6C27.8394 14.9467 27.3527 15.12 26.7794 15.12ZM35.3628 1.42C34.4695 1.78 33.7761 2.33333 33.2828 3.08C32.8028 3.81333 32.5628 4.71333 32.5628 5.78C32.5628 6.27333 32.6095 6.62 32.7028 6.82C32.7961 7.00667 32.8428 7.11333 32.8428 7.14C32.1228 7.14 31.5828 6.99333 31.2228 6.7C30.8761 6.39333 30.7028 5.89333 30.7028 5.2C30.7028 4.34667 31.0495 3.52 31.7428 2.72C32.4495 1.90667 33.3495 1.25333 34.4428 0.76C35.5361 0.253332 36.6295 -1.19209e-06 37.7228 -1.19209e-06C37.9095 -1.19209e-06 38.1761 0.0133324 38.5228 0.0399995L35.3428 15H32.4628L35.3628 1.42ZM44.5828 1.4C43.6895 1.77333 42.9961 2.33333 42.5028 3.08C42.0228 3.82667 41.7828 4.72667 41.7828 5.78C41.7828 6.27333 41.8295 6.62 41.9228 6.82C42.0161 7.00667 42.0628 7.11333 42.0628 7.14C41.3428 7.14 40.8028 6.99333 40.4428 6.7C40.0961 6.39333 39.9228 5.89333 39.9228 5.2C39.9228 4.34667 40.2695 3.52 40.9628 2.72C41.6695 1.90667 42.5695 1.25333 43.6628 0.76C44.7561 0.253332 45.8495 -1.19209e-06 46.9428 -1.19209e-06C47.1295 -1.19209e-06 47.3961 0.0133324 47.7428 0.0399995L46.4628 6H49.4028L50.6828 0.0399995H53.5628L50.3828 15H47.5028L49.1028 7.48H46.1628L44.5628 15H41.6828L44.5828 1.4ZM57.9236 3.92C57.4836 3.92 57.1103 3.76667 56.8036 3.46C56.4969 3.15333 56.3436 2.78 56.3436 2.34C56.3436 1.9 56.4969 1.52667 56.8036 1.22C57.1103 0.899999 57.4836 0.739999 57.9236 0.739999C58.3636 0.739999 58.7369 0.899999 59.0436 1.22C59.3636 1.52667 59.5236 1.9 59.5236 2.34C59.5236 2.78 59.3636 3.15333 59.0436 3.46C58.7369 3.76667 58.3636 3.92 57.9236 3.92ZM56.5636 15.12C55.9236 15.12 55.4036 14.92 55.0036 14.52C54.6169 14.12 54.4236 13.52 54.4236 12.72C54.4236 12.3867 54.4769 11.9533 54.5836 11.42L55.9436 5H58.8236L57.3836 11.8C57.3303 12 57.3036 12.2133 57.3036 12.44C57.3036 12.7067 57.3636 12.9 57.4836 13.02C57.6169 13.1267 57.8303 13.18 58.1236 13.18C58.5103 13.18 58.8703 13.02 59.2036 12.7C59.5369 12.3667 59.7769 11.94 59.9236 11.42H60.7636C60.2703 12.86 59.6369 13.84 58.8636 14.36C58.0903 14.8667 57.3236 15.12 56.5636 15.12ZM62.8756 5H65.7556L65.4956 6.24C65.949 5.84 66.3556 5.53333 66.7156 5.32C67.089 5.10667 67.489 5 67.9156 5C68.3423 5 68.6756 5.14667 68.9156 5.44C69.169 5.73333 69.2956 6.08667 69.2956 6.5C69.2956 6.88667 69.169 7.22667 68.9156 7.52C68.6623 7.81333 68.309 7.96 67.8556 7.96C67.5623 7.96 67.3623 7.89333 67.2556 7.76C67.1623 7.61333 67.089 7.40667 67.0356 7.14C66.9956 6.96667 66.9556 6.84 66.9156 6.76C66.8756 6.68 66.8023 6.64 66.6956 6.64C66.4156 6.64 66.1756 6.7 65.9756 6.82C65.789 6.92667 65.5423 7.12 65.2356 7.4L63.6356 15H60.7556L62.8756 5ZM73.4952 15.12C72.5085 15.12 71.7418 14.8667 71.1952 14.36C70.6485 13.84 70.3752 13.0333 70.3752 11.94C70.3752 11.02 70.5552 10.0067 70.9152 8.9C71.2752 7.79333 71.8618 6.84 72.6752 6.04C73.4885 5.22667 74.5218 4.82 75.7752 4.82C77.2418 4.82 77.9752 5.46 77.9752 6.74C77.9752 7.48667 77.7618 8.17333 77.3352 8.8C76.9085 9.42667 76.3418 9.93333 75.6352 10.32C74.9285 10.6933 74.1752 10.9067 73.3752 10.96C73.3485 11.36 73.3352 11.6267 73.3352 11.76C73.3352 12.4133 73.4485 12.86 73.6752 13.1C73.9018 13.3267 74.2685 13.44 74.7752 13.44C75.4952 13.44 76.1085 13.2733 76.6152 12.94C77.1352 12.6067 77.7018 12.1 78.3152 11.42H78.9952C77.5152 13.8867 75.6818 15.12 73.4952 15.12ZM73.5352 10C74.0285 9.97333 74.4952 9.8 74.9352 9.48C75.3885 9.16 75.7485 8.75333 76.0152 8.26C76.2952 7.76667 76.4352 7.24667 76.4352 6.7C76.4352 6.15333 76.2685 5.88 75.9352 5.88C75.4552 5.88 74.9818 6.3 74.5152 7.14C74.0618 7.98 73.7352 8.93333 73.5352 10ZM82.3109 15.12C81.5509 15.12 80.9176 14.86 80.4109 14.34C79.9043 13.82 79.6509 13.0067 79.6509 11.9C79.6509 10.9133 79.8443 9.88 80.2309 8.8C80.6309 7.70667 81.2176 6.78667 81.9909 6.04C82.7776 5.28 83.7109 4.9 84.7909 4.9C85.3376 4.9 85.7443 4.99333 86.0109 5.18C86.2776 5.36667 86.4109 5.61333 86.4109 5.92V6L87.3909 1.4L90.3509 0.999999L88.0509 11.8C87.9976 12 87.9709 12.1933 87.9709 12.38C87.9709 12.9133 88.2443 13.18 88.7909 13.18C89.0309 13.18 89.2443 13.14 89.4309 13.06C89.3776 13.7267 89.1376 14.24 88.7109 14.6C88.2976 14.9467 87.8043 15.12 87.2309 15.12C86.6976 15.12 86.2443 14.9867 85.8709 14.72C85.5109 14.44 85.2709 14.02 85.1509 13.46C84.3509 14.5667 83.4043 15.12 82.3109 15.12ZM83.6109 13.18C83.9043 13.18 84.1976 13.0533 84.4909 12.8C84.7976 12.5467 85.0243 12.1933 85.1709 11.74L85.2509 11.42L86.2309 6.84C86.1109 6.37333 85.8376 6.14 85.4109 6.14C84.8776 6.14 84.3976 6.45333 83.9709 7.08C83.5443 7.69333 83.2109 8.44 82.9709 9.32C82.7309 10.1867 82.6109 10.9533 82.6109 11.62C82.6109 12.2867 82.7043 12.7133 82.8909 12.9C83.0909 13.0867 83.3309 13.18 83.6109 13.18Z" fill="#30DF7E"/>
</svg>
