<svg width="144" height="24" viewBox="0 0 144 24" fill="none" xmlns="http://www.w3.org/2000/svg">
<path d="M6.16095 24C4.99059 24 3.94168 23.8022 3.01423 23.4066C2.08677 22.989 1.34702 22.3956 0.794961 21.6264C0.264987 20.8352 0 19.8791 0 18.7582C0 17.6374 0.264987 16.7033 0.794961 15.956C1.34702 15.1868 2.09781 14.6154 3.04735 14.2418C4.01897 13.8462 5.12308 13.6484 6.35969 13.6484H10.8645V12.7253C10.8645 11.956 10.6216 11.3297 10.1358 10.8462C9.64995 10.3407 8.87707 10.0879 7.81712 10.0879C6.77925 10.0879 6.00637 10.3297 5.49848 10.8132C4.99059 11.2747 4.65936 11.8791 4.50478 12.6264L0.662468 11.3407C0.927455 10.5055 1.34702 9.74725 1.92116 9.06594C2.51738 8.36264 3.3013 7.8022 4.27292 7.38462C5.26662 6.94505 6.4701 6.72527 7.88336 6.72527C10.0474 6.72527 11.7588 7.26374 13.0175 8.34066C14.2762 9.41758 14.9055 10.978 14.9055 13.022V19.1209C14.9055 19.7802 15.2147 20.1099 15.833 20.1099H17.1579V23.5385H14.3755C13.5585 23.5385 12.885 23.3407 12.355 22.9451C11.825 22.5495 11.5601 22.022 11.5601 21.3626V21.3297H10.9307C10.8424 21.5934 10.6436 21.9451 10.3345 22.3846C10.0253 22.8022 9.53953 23.1758 8.87707 23.5055C8.2146 23.8352 7.30923 24 6.16095 24ZM6.88966 20.6374C8.06002 20.6374 9.00956 20.3187 9.73827 19.6813C10.4891 19.022 10.8645 18.1538 10.8645 17.0769V16.7473H6.6578C5.88492 16.7473 5.27766 16.9121 4.83601 17.2418C4.39437 17.5714 4.17355 18.033 4.17355 18.6264C4.17355 19.2198 4.40541 19.7033 4.86914 20.0769C5.33286 20.4506 6.00637 20.6374 6.88966 20.6374Z" fill="#697DDE"/>
<path d="M20.2094 23.5385V7.18681H24.3167V8.96703H24.9129C25.2 8.41758 25.6748 7.94506 26.3372 7.54945C26.9997 7.13187 27.8719 6.92308 28.954 6.92308C30.1243 6.92308 31.0628 7.15385 31.7695 7.61539C32.4761 8.05495 33.0171 8.63736 33.3925 9.36264H33.9887C34.3641 8.65934 34.8941 8.07692 35.5786 7.61539C36.2632 7.15385 37.2348 6.92308 38.4935 6.92308C39.5093 6.92308 40.4257 7.14286 41.2427 7.58242C42.0819 8 42.7443 8.64835 43.2302 9.52747C43.738 10.3846 43.992 11.4725 43.992 12.7912V23.5385H39.8184V13.0879C39.8184 12.1868 39.5866 11.5165 39.1229 11.0769C38.6591 10.6154 38.0077 10.3846 37.1686 10.3846C36.219 10.3846 35.4793 10.6923 34.9493 11.3077C34.4414 11.9011 34.1875 12.7582 34.1875 13.8791V23.5385H30.0139V13.0879C30.0139 12.1868 29.7821 11.5165 29.3183 11.0769C28.8546 10.6154 28.2032 10.3846 27.3641 10.3846C26.4145 10.3846 25.6748 10.6923 25.1448 11.3077C24.6369 11.9011 24.3829 12.7582 24.3829 13.8791V23.5385H20.2094Z" fill="#697DDE"/>
<path d="M65.1687 23.5385V0.461538H69.541V9.98901H78.1531V0.461538H82.5253V23.5385H78.1531V13.9451H69.541V23.5385H65.1687Z" fill="#697DDE"/>
<path d="M87.0384 23.5385V7.18681H91.212V23.5385H87.0384ZM89.1252 5.27473C88.3744 5.27473 87.734 5.03297 87.204 4.54945C86.6961 4.06593 86.4422 3.42857 86.4422 2.63736C86.4422 1.84615 86.6961 1.20879 87.204 0.725275C87.734 0.241758 88.3744 0 89.1252 0C89.8981 0 90.5384 0.241758 91.0463 0.725275C91.5542 1.20879 91.8082 1.84615 91.8082 2.63736C91.8082 3.42857 91.5542 4.06593 91.0463 4.54945C90.5384 5.03297 89.8981 5.27473 89.1252 5.27473Z" fill="#697DDE"/>
<path d="M95.8368 23.5385V7.18681H99.9441V9.03297H100.54C100.783 8.37363 101.181 7.89011 101.733 7.58242C102.307 7.27473 102.969 7.12088 103.72 7.12088H105.708V10.8132H103.654C102.594 10.8132 101.722 11.0989 101.037 11.6703C100.353 12.2198 100.01 13.0769 100.01 14.2418V23.5385H95.8368Z" fill="#697DDE"/>
<path d="M115.873 24C114.239 24 112.793 23.6593 111.534 22.978C110.298 22.2747 109.326 21.2967 108.619 20.044C107.935 18.7692 107.593 17.2747 107.593 15.5604V15.1648C107.593 13.4506 107.935 11.967 108.619 10.7143C109.304 9.43956 110.264 8.46154 111.501 7.78022C112.738 7.07692 114.173 6.72527 115.807 6.72527C117.419 6.72527 118.821 7.08791 120.014 7.81319C121.206 8.51648 122.134 9.5055 122.796 10.7802C123.459 12.033 123.79 13.4945 123.79 15.1648V16.5824H111.832C111.876 17.7033 112.296 18.6154 113.091 19.3187C113.886 20.022 114.858 20.3736 116.006 20.3736C117.176 20.3736 118.037 20.1209 118.589 19.6154C119.142 19.1099 119.561 18.5495 119.848 17.9341L123.26 19.7143C122.951 20.2857 122.498 20.9121 121.902 21.5934C121.328 22.2527 120.555 22.8242 119.583 23.3077C118.612 23.7692 117.375 24 115.873 24ZM111.865 13.4835H119.55C119.462 12.5385 119.075 11.7802 118.391 11.2088C117.728 10.6374 116.856 10.3516 115.774 10.3516C114.648 10.3516 113.753 10.6374 113.091 11.2088C112.429 11.7802 112.02 12.5385 111.865 13.4835Z" fill="#697DDE"/>
<path d="M134.129 24C132.826 24 131.601 23.6813 130.453 23.044C129.326 22.3846 128.421 21.4286 127.736 20.1758C127.052 18.9231 126.71 17.4066 126.71 15.6264V15.0989C126.71 13.3187 127.052 11.8022 127.736 10.5495C128.421 9.2967 129.326 8.35165 130.453 7.71429C131.579 7.05494 132.804 6.72527 134.129 6.72527C135.123 6.72527 135.951 6.84615 136.613 7.08791C137.298 7.30769 137.85 7.59341 138.27 7.94506C138.689 8.2967 139.009 8.67033 139.23 9.06594H139.826V0.461538H144V23.5385H139.893V21.5604H139.296C138.921 22.1758 138.336 22.7363 137.541 23.2418C136.768 23.7473 135.631 24 134.129 24ZM135.388 20.3736C136.669 20.3736 137.74 19.967 138.601 19.1538C139.462 18.3187 139.893 17.1099 139.893 15.5275V15.1978C139.893 13.6154 139.462 12.4176 138.601 11.6044C137.762 10.7692 136.691 10.3516 135.388 10.3516C134.107 10.3516 133.036 10.7692 132.175 11.6044C131.314 12.4176 130.883 13.6154 130.883 15.1978V15.5275C130.883 17.1099 131.314 18.3187 132.175 19.1538C133.036 19.967 134.107 20.3736 135.388 20.3736Z" fill="#697DDE"/>
<path d="M52.5668 23.5385V0.46154H56.7072V23.5385H52.5668Z" fill="#22C55E"/>
<path d="M46.7702 19.4176H62.5038V23.5385L46.7702 23.5385V19.4176Z" fill="#22C55E"/>
<path d="M46.7702 0.461539L62.5038 0.46154V4.58242L46.7702 4.58242V0.461539Z" fill="#22C55E"/>
</svg>
