<svg width="192" height="32" viewBox="0 0 192 32" fill="none" xmlns="http://www.w3.org/2000/svg">
<path d="M8.17582 32C6.62271 32 5.23077 31.7363 4 31.2088C2.76923 30.652 1.78755 29.8608 1.05495 28.8352C0.351648 27.7802 0 26.5055 0 25.011C0 23.5165 0.351648 22.2711 1.05495 21.2747C1.78755 20.2491 2.78388 19.4872 4.04396 18.989C5.33333 18.4615 6.79853 18.1978 8.43956 18.1978H14.4176V16.967C14.4176 15.9414 14.0952 15.1062 13.4505 14.4615C12.8059 13.7875 11.7802 13.4505 10.3736 13.4505C8.99634 13.4505 7.9707 13.7729 7.2967 14.4176C6.62271 15.033 6.18315 15.8388 5.97802 16.8352L0.879121 15.1209C1.23077 14.0073 1.78755 12.9963 2.54945 12.0879C3.34066 11.1502 4.38095 10.4029 5.67033 9.84615C6.98901 9.26007 8.58608 8.96703 10.4615 8.96703C13.3333 8.96703 15.6044 9.68498 17.2747 11.1209C18.9451 12.5568 19.7802 14.6374 19.7802 17.3626V25.4945C19.7802 26.3736 20.1905 26.8132 21.011 26.8132H22.7692V31.3846H19.0769C17.9927 31.3846 17.0989 31.1209 16.3956 30.5934C15.6923 30.0659 15.3407 29.3626 15.3407 28.4835V28.4396H14.5055C14.3883 28.7912 14.1245 29.2601 13.7143 29.8462C13.304 30.4029 12.6593 30.9011 11.7802 31.3407C10.9011 31.7802 9.69963 32 8.17582 32ZM9.14286 27.5165C10.696 27.5165 11.956 27.0916 12.9231 26.2418C13.9194 25.3626 14.4176 24.2051 14.4176 22.7692V22.3297H8.83516C7.80952 22.3297 7.00366 22.5495 6.41758 22.989C5.8315 23.4286 5.53846 24.044 5.53846 24.8352C5.53846 25.6264 5.84615 26.2711 6.46154 26.7692C7.07692 27.2674 7.9707 27.5165 9.14286 27.5165Z" fill="#697DDE"/>
<path d="M26.8187 31.3846V9.58242H32.2692V11.956H33.0604C33.4414 11.2234 34.0714 10.5934 34.9505 10.0659C35.8297 9.50916 36.9872 9.23077 38.4231 9.23077C39.9762 9.23077 41.2216 9.53846 42.1593 10.1538C43.0971 10.7399 43.815 11.5165 44.3132 12.4835H45.1044C45.6026 11.5458 46.3059 10.7692 47.2143 10.1538C48.1227 9.53846 49.4121 9.23077 51.0824 9.23077C52.4304 9.23077 53.6465 9.52381 54.7308 10.1099C55.8443 10.6667 56.7234 11.5311 57.3681 12.7033C58.0421 13.8462 58.3791 15.2967 58.3791 17.0549V31.3846H52.8407V17.4506C52.8407 16.2491 52.533 15.3553 51.9176 14.7692C51.3022 14.1538 50.4377 13.8462 49.3242 13.8462C48.0641 13.8462 47.0824 14.2564 46.3791 15.0769C45.7051 15.8681 45.3681 17.011 45.3681 18.5055V31.3846H39.8297V17.4506C39.8297 16.2491 39.522 15.3553 38.9066 14.7692C38.2912 14.1538 37.4267 13.8462 36.3132 13.8462C35.0531 13.8462 34.0714 14.2564 33.3681 15.0769C32.6941 15.8681 32.3571 17.011 32.3571 18.5055V31.3846H26.8187Z" fill="#697DDE"/>
<path d="M86.4815 31.3846V0.615385H92.2837V13.3187H103.712V0.615385H109.514V31.3846H103.712V18.5934H92.2837V31.3846H86.4815Z" fill="#697DDE"/>
<path d="M115.503 31.3846V9.58242H121.042V31.3846H115.503ZM118.273 7.03297C117.276 7.03297 116.427 6.71062 115.723 6.06593C115.049 5.42125 114.712 4.57143 114.712 3.51649C114.712 2.46154 115.049 1.61172 115.723 0.967034C116.427 0.322345 117.276 0 118.273 0C119.298 0 120.148 0.322345 120.822 0.967034C121.496 1.61172 121.833 2.46154 121.833 3.51649C121.833 4.57143 121.496 5.42125 120.822 6.06593C120.148 6.71062 119.298 7.03297 118.273 7.03297Z" fill="#697DDE"/>
<path d="M127.179 31.3846V9.58242H132.63V12.044H133.421C133.743 11.1648 134.271 10.5201 135.003 10.1099C135.765 9.69963 136.644 9.49451 137.641 9.49451H140.278V14.4176H137.553C136.146 14.4176 134.989 14.7985 134.08 15.5604C133.172 16.293 132.718 17.4359 132.718 18.989V31.3846H127.179Z" fill="#697DDE"/>
<path d="M153.769 32C151.6 32 149.681 31.5458 148.01 30.6374C146.369 29.6996 145.08 28.3956 144.142 26.7253C143.234 25.0256 142.78 23.033 142.78 20.7473V20.2198C142.78 17.9341 143.234 15.956 144.142 14.2857C145.051 12.5861 146.325 11.2821 147.966 10.3736C149.607 9.4359 151.512 8.96703 153.681 8.96703C155.82 8.96703 157.681 9.45055 159.263 10.4176C160.845 11.3553 162.076 12.674 162.955 14.3736C163.834 16.044 164.274 17.9927 164.274 20.2198V22.1099H148.406C148.465 23.6044 149.021 24.8205 150.076 25.7582C151.131 26.696 152.421 27.1648 153.944 27.1648C155.497 27.1648 156.64 26.8278 157.373 26.1538C158.106 25.4799 158.662 24.7326 159.043 23.9121L163.571 26.2857C163.16 27.0476 162.56 27.8828 161.769 28.7912C161.007 29.6703 159.981 30.4322 158.692 31.0769C157.402 31.6923 155.761 32 153.769 32ZM148.45 17.978H158.648C158.53 16.7179 158.018 15.707 157.109 14.9451C156.23 14.1832 155.073 13.8022 153.637 13.8022C152.142 13.8022 150.955 14.1832 150.076 14.9451C149.197 15.707 148.655 16.7179 148.45 17.978Z" fill="#697DDE"/>
<path d="M177.995 32C176.266 32 174.64 31.5751 173.116 30.7253C171.621 29.8462 170.42 28.5714 169.511 26.9011C168.603 25.2308 168.149 23.2088 168.149 20.8352V20.1319C168.149 17.7582 168.603 15.7363 169.511 14.0659C170.42 12.3956 171.621 11.1355 173.116 10.2857C174.61 9.40659 176.237 8.96703 177.995 8.96703C179.314 8.96703 180.412 9.1282 181.292 9.45055C182.2 9.74359 182.933 10.1245 183.489 10.5934C184.046 11.0623 184.471 11.5604 184.764 12.0879H185.555V0.615385H191.094V31.3846H185.643V28.7473H184.852C184.354 29.5678 183.577 30.315 182.522 30.989C181.497 31.663 179.988 32 177.995 32ZM179.665 27.1648C181.365 27.1648 182.786 26.6227 183.929 25.5385C185.072 24.4249 185.643 22.8132 185.643 20.7033V20.2637C185.643 18.1538 185.072 16.5568 183.929 15.4725C182.815 14.359 181.394 13.8022 179.665 13.8022C177.966 13.8022 176.544 14.359 175.401 15.4725C174.259 16.5568 173.687 18.1538 173.687 20.2637V20.7033C173.687 22.8132 174.259 24.4249 175.401 25.5385C176.544 26.6227 177.966 27.1648 179.665 27.1648Z" fill="#697DDE"/>
<path d="M69.7582 25.8901V6.10989H75.2527V25.8901H69.7582Z" fill="#22C55E"/>
<path d="M75.2527 25.8901H82.945V31.3846H75.2527L75.2527 25.8901Z" fill="#22C55E"/>
<path d="M62.0659 25.8901H69.7582V31.3846H62.0659V25.8901Z" fill="#22C55E"/>
<path d="M75.2527 0.615386L82.945 0.615386V6.10989L75.2527 6.10989V0.615386Z" fill="#22C55E"/>
<path d="M62.0659 0.615386L69.7582 0.615386V6.10989H62.0659V0.615386Z" fill="#22C55E"/>
</svg>
