<svg width="256" height="33" viewBox="0 0 256 33" fill="none" xmlns="http://www.w3.org/2000/svg">
<g clip-path="url(#clip0_1016_66944)">
<path d="M8.3541 1.26642H1.2146V31.7337H8.3541V1.26642Z" fill="#20B670"/>
<path d="M17.9004 7.50507H27.3256V31.7337H34.5054V7.50507H43.9306V1.26642H17.9004V7.50507Z" fill="#20B670"/>
<path d="M83.0162 25.0647C81.8868 25.5219 80.5692 25.7504 79.0767 25.7504C77.8129 25.7504 76.6431 25.5353 75.5675 25.1051C74.4919 24.6748 73.5641 24.0563 72.7977 23.2362C72.0179 22.416 71.4263 21.4479 70.9961 20.3051C70.5658 19.1757 70.3507 17.8983 70.3507 16.5C70.3507 15.0883 70.5524 13.8244 70.9692 12.695C71.386 11.5656 71.991 10.5841 72.7708 9.76389C73.5641 8.94372 74.4784 8.32523 75.5406 7.89498C76.6028 7.46473 77.7725 7.2496 79.0633 7.2496C80.5288 7.2496 81.8061 7.49162 82.9087 7.96221C84.0112 8.43279 84.9523 9.10506 85.7322 9.96557L90.5053 5.15212C89.0935 3.80758 87.4397 2.7454 85.5171 1.96557C83.5944 1.18574 81.4431 0.809265 79.0633 0.809265C76.791 0.809265 74.6935 1.21263 72.744 2.01935C70.7944 2.82607 69.0868 3.92859 67.6482 5.32691C66.1961 6.73868 65.0666 8.39246 64.2465 10.3017C63.4263 12.2109 63.0229 14.2815 63.0229 16.5135C63.0229 18.7185 63.4263 20.7891 64.233 22.7118C65.0398 24.6345 66.1692 26.3017 67.6347 27.7269C69.1003 29.1521 70.8078 30.2546 72.7708 31.0345C74.7339 31.8278 76.8582 32.2177 79.1574 32.2177C81.6582 32.2177 83.8364 31.8412 85.6918 31.0748C87.5608 30.3219 89.2145 29.2597 90.6801 27.9151L85.8666 23.142C85.1137 23.9622 84.1591 24.6076 83.0162 25.0647Z" fill="#20B670"/>
<path d="M119.05 18.1403C120.623 17.4009 121.846 16.3521 122.734 15.021C123.608 13.6899 124.052 12.1168 124.052 10.3151C124.052 8.56724 123.608 7.02102 122.734 5.66304C121.86 4.3185 120.65 3.24287 119.117 2.46304C117.584 1.66976 115.796 1.27985 113.766 1.27985H108.307H106.72H101.167V31.7471H108.307V19.2698H108.899L117.678 31.7471H126.028L116.441 19.0009C117.383 18.7992 118.257 18.5168 119.05 18.1403ZM108.294 6.73867H112.852C114.169 6.73867 115.178 7.08825 115.89 7.77396C116.589 8.45968 116.939 9.33363 116.939 10.3958C116.939 11.5387 116.589 12.453 115.89 13.1118C115.191 13.7706 114.169 14.1067 112.852 14.1067H108.294V6.73867Z" fill="#20B670"/>
<path d="M205.638 19.9286L200.139 1.26642H194.492L188.966 19.9152L183.399 1.26642H176.3L186.062 31.7337H191.695L197.289 12.9505L202.882 31.7337H208.529L218.25 1.26642H211.272L205.638 19.9286Z" fill="#20B670"/>
<path d="M253.894 10.3689C253.087 8.51346 251.958 6.91346 250.492 5.55548C249.026 4.19749 247.319 3.13531 245.369 2.39581C243.42 1.65632 241.282 1.27985 238.956 1.27985H233.793H231.171H226.653V31.7471H231.467H233.793H239.037C241.336 31.7471 243.447 31.384 245.41 30.6446C247.359 29.9185 249.053 28.8698 250.505 27.4983C251.958 26.1403 253.073 24.5269 253.88 22.6849C254.687 20.8294 255.09 18.7723 255.09 16.5135C255.09 14.2681 254.687 12.2244 253.894 10.3689ZM246.687 21.3403C245.961 22.6983 244.926 23.7471 243.594 24.4597C242.263 25.1723 240.704 25.5353 238.929 25.5353H233.806V7.46472H238.929C240.704 7.46472 242.263 7.82774 243.594 8.56724C244.926 9.29329 245.961 10.3286 246.687 11.6462C247.413 12.9639 247.789 14.5773 247.789 16.4597C247.789 18.342 247.413 19.9824 246.687 21.3403Z" fill="#20B670"/>
<path d="M152.072 12.4395C159.319 12.4395 165.49 7.8143 167.816 1.37396H159.83C158.082 3.76724 155.258 5.31346 152.072 5.31346C148.885 5.31346 146.062 3.75379 144.314 1.37396H136.327C138.653 7.82774 144.825 12.4395 152.072 12.4395Z" fill="#20B670"/>
<path d="M152.072 14.9941C142.848 14.9941 135.332 22.5101 135.332 31.7336H142.458C142.458 26.4362 146.774 22.1202 152.072 22.1202C157.369 22.1202 161.685 26.4362 161.685 31.7336H168.811C168.811 22.4967 161.295 14.9941 152.072 14.9941Z" fill="#20B670"/>
</g>
<defs>
<clipPath id="clip0_1016_66944">
<rect width="256" height="32" fill="white" transform="translate(0 0.5)"/>
</clipPath>
</defs>
</svg>
